<?xml version="1.0" encoding="UTF-8"?>
<svg version="1.1" viewBox="0 0 700 700" xmlns="http://www.w3.org/2000/svg">

  <path d="m336.88 188.23-156.25 179.76 81.109 81.125 171.96-149.43zm264.7-164.02c-4.2188 0-12.312 2.4648-26.312 5.8984-54.715 12.348-120.3 24.055-132.55 36.293l-80.242 92.363 100.43 115.54 100.41-87.277c12.469-12.445 24.328-79.98 36.91-135.16 4.7227-20.715 8.4141-27.625 1.3594-27.652z"/>
  <path d="m139.58 363.5c-5.8125 0-11.605 2.2031-16.039 6.6328-8.9219 8.9219-8.9219 23.234 0 32.117l21.703 21.715-40.445 40.469c-15.48 15.457-14.449 41.414 2.3086 58.207 16.781 16.742 42.742 17.789 58.203 2.2969l40.48-40.445 21.703 21.715c8.8867 8.9102 23.207 8.9102 32.094 0 8.9102-8.8867 8.9102-23.207 0-32.082l-103.97-103.99c-4.4492-4.4375-10.246-6.6328-16.039-6.6328z"/>
  <path d="m518.68 368-262.05-301.55c-12.25-12.273-77.852-23.98-132.55-36.328-37.367-9.168-32.531-11.406-24.984 21.75 12.574 55.184 24.465 122.72 36.91 135.16l301.59 262.09z"/>
  <path d="m559.77 363.5c-5.8008 0-11.605 2.2031-16.078 6.6328l-103.95 104c-8.8867 8.8711-8.8867 23.203 0 32.082 8.9102 8.9102 23.234 8.9102 32.105 0l21.715-21.715 40.48 40.445c15.457 15.492 41.414 14.449 58.164-2.2969 16.793-16.793 17.828-42.754 2.332-58.207l-40.445-40.469 21.715-21.715c8.9102-8.8867 8.9102-23.203 0-32.117-4.4297-4.4492-10.234-6.6445-16.035-6.6445z"/>
  
</svg>
