<?xml version="1.0" encoding="UTF-8"?>
<svg width="700pt" height="700pt" version="1.1" viewBox="0 0 700 700" xmlns="http://www.w3.org/2000/svg" xmlns:xlink="http://www.w3.org/1999/xlink">
 
  <path d="m518.66 368-262.04-301.55c-12.25-12.273-77.852-23.98-132.55-36.328-37.395-9.1719-32.535-11.406-24.988 21.754 12.574 55.184 24.465 122.72 36.91 135.16l301.59 262.09z"/>
  <path d="m559.77 363.5c-5.8125 0-11.605 2.2031-16.078 6.6328l-103.97 104c-8.8711 8.8711-8.8711 23.203 0 32.082 8.9219 8.9102 23.207 8.9102 32.117 0l21.715-21.715 40.445 40.445c15.48 15.492 41.441 14.449 58.203-2.2969 16.781-16.793 17.828-42.754 2.332-58.207l-40.445-40.469 21.715-21.715c8.8711-8.8867 8.8711-23.203 0-32.117-4.4414-4.4492-10.234-6.6445-16.035-6.6445z"/>
  
</svg>
